<?xml version="1.0" encoding="UTF-8" standalone="no"?>
<!-- Created with Inkscape (http://www.inkscape.org/) -->

<svg
   width="80.966476mm"
   height="23.121902mm"
   viewBox="0 0 80.966476 23.121902"
   version="1.1"
   id="svg5"
   inkscape:version="1.1.2 (0a00cf5339, 2022-02-04)"
   sodipodi:docname="drawing.svg"
   xmlns:inkscape="http://www.inkscape.org/namespaces/inkscape"
   xmlns:sodipodi="http://sodipodi.sourceforge.net/DTD/sodipodi-0.dtd"
   xmlns="http://www.w3.org/2000/svg"
   xmlns:svg="http://www.w3.org/2000/svg">
  <sodipodi:namedview
     id="namedview7"
     pagecolor="#ffffff"
     bordercolor="#666666"
     borderopacity="1.0"
     inkscape:pageshadow="2"
     inkscape:pageopacity="0.0"
     inkscape:pagecheckerboard="0"
     inkscape:document-units="mm"
     showgrid="false"
     inkscape:zoom="1.8101934"
     inkscape:cx="200.25485"
     inkscape:cy="120.98155"
     inkscape:window-width="1440"
     inkscape:window-height="863"
     inkscape:window-x="0"
     inkscape:window-y="0"
     inkscape:window-maximized="1"
     inkscape:current-layer="layer1" />
  <defs
     id="defs2" />
  <g
     inkscape:label="Layer 1"
     inkscape:groupmode="layer"
     id="layer1"
     transform="translate(-434.35011,224.30445)">
    <g
       id="g73888"
       transform="translate(-134.32761,-33.919873)">
      <g
         style="clip-rule:evenodd;fill-rule:evenodd;image-rendering:optimizeQuality;shape-rendering:geometricPrecision;text-rendering:geometricPrecision"
         id="g2045"
         transform="matrix(0.26458333,0,0,0.26458333,566.71464,-196.69233)">
        <g
           id="g2005">
          <path
             style="opacity:0.865"
             fill="#fefffe"
             d="m 77.5,24.5 c 27.016,-0.2812 54.016,0.2188 81,1.5 10.631,5.3267 21.298,10.6601 32,16 22.319,1.2576 44.652,2.2576 67,3 17.944,2.237 35.611,7.4037 53,15.5 5.048,5.998 4.715,11.8313 -1,17.5 -3.081,1.1228 -5.747,2.7894 -8,5 -4.667,0.3333 -9.333,0.6667 -14,1 -0.923,2.0408 -1.256,4.2075 -1,6.5 -3.667,0 -7.333,0 -11,0 -0.386,-4.3764 0.281,-8.5431 2,-12.5 6.837,-4.4183 14.17,-7.7517 22,-10 -10.294,-5.6399 -21.294,-9.3066 -33,-11 -48.881,-4.7888 -97.881,-6.7888 -147,-6 -20.2166,-10.8795 -41.5499,-13.5462 -64,-8 -7.251,2.425 -13.9176,5.925 -20,10.5 -5.1256,-0.6729 -10.4589,-1.0063 -16,-1 0.166,5.3437 -6e-4,10.6771 -0.5,16 -3.3936,0.9558 -6.8936,1.2892 -10.5,1 -0.85796,-8.3398 -0.52463,-16.6732 1,-25 0.586,-0.2093 1.086,-0.5426 1.5,-1 8.3416,1.6666 16.5083,1.1666 24.5,-1.5 13.4357,-5.1575 27.4357,-10.9908 42,-17.5 z"
             id="path2003" />
        </g>
        <g
           id="g2009">
          <path
             style="opacity:0.006"
             fill="#fefffe"
             d="m 40.5,52.5 c 1.4464,-1.1129 3.1131,-1.2796 5,-0.5 -1.799,1.0363 -3.4657,1.2029 -5,0.5 z"
             id="path2007" />
        </g>
        <g
           id="g2013">
          <path
             style="opacity:0.00499998"
             fill="#fefffe"
             d="m 46.5,52.5 c 2.5799,-1.5079 4.5799,-0.8413 6,2 -0.1667,0.3333 -0.3333,0.6667 -0.5,1 -1.2635,-2.107 -3.0968,-3.107 -5.5,-3 z"
             id="path2011" />
        </g>
        <g
           id="g2017">
          <path
             style="opacity:0.00400002"
             fill="#fefffe"
             d="m 22.5,61.5 c 1.025,0.3966 1.1917,1.0632 0.5,2 -0.4643,-0.5944 -0.631,-1.2611 -0.5,-2 z"
             id="path2015" />
        </g>
        <g
           id="g2021">
          <path
             style="opacity:0.016"
             fill="#fefffe"
             d="m 268.5,88.5 c 1.965,0.4483 2.298,1.4483 1,3 -0.886,-0.825 -1.219,-1.825 -1,-3 z"
             id="path2019" />
        </g>
        <g
           id="g2025">
          <path
             style="opacity:0.00400002"
             fill="#fefffe"
             d="m 21.5,98.5 c 1.025,0.3966 1.1917,1.0632 0.5,2 -0.4643,-0.5944 -0.631,-1.2611 -0.5,-2 z"
             id="path2023" />
        </g>
      </g>
      <text
         xml:space="preserve"
         style="font-style:normal;font-weight:normal;font-size:13.8542px;line-height:1.25;font-family:sans-serif;fill:#000000;fill-opacity:1;stroke:none;stroke-width:0.346356"
         x="622.23969"
         y="-158.67029"
         id="text4711"
         transform="scale(0.93011977,1.0751304)"><tspan
           sodipodi:role="line"
           id="tspan4709"
           style="font-style:normal;font-variant:normal;font-weight:bold;font-stretch:normal;font-family:sans-serif;-inkscape-font-specification:'sans-serif Bold';fill:#ffffff;stroke-width:0.346356"
           x="622.23969"
           y="-158.67029">MIMOZA</tspan></text>
      <g
         id="g41498"
         transform="matrix(0,-0.72817919,0.88155483,0,721.27982,252.30294)">
        <g
           id="g37246"
           transform="matrix(0.94079926,0,0,0.92397966,-9.5222726,-12.103076)">
          <g
             id="g37227"
             transform="translate(7.5137342,-2.5379059)"
             style="fill:#000000">
            <g
               id="g37221"
               style="fill:#000000">
              <g
                 id="g37216"
                 style="fill:#000000">
                <g
                   id="g37212"
                   style="fill:#000000">
                  <rect
                     style="fill:#000000;stroke-width:0.264999"
                     id="rect37123"
                     width="17.958904"
                     height="7.7958269"
                     x="619.77277"
                     y="-166.81258" />
                </g>
              </g>
            </g>
          </g>
        </g>
        <text
           xml:space="preserve"
           style="font-style:normal;font-weight:normal;font-size:7.32261px;line-height:1.25;font-family:sans-serif;fill:#000000;fill-opacity:1;stroke:none;stroke-width:0.183065"
           x="581.90253"
           y="-162.55193"
           id="text26339"
           transform="scale(0.99788659,1.0021179)"><tspan
             sodipodi:role="line"
             id="tspan26337"
             style="font-style:normal;font-variant:normal;font-weight:bold;font-stretch:normal;font-family:'Times New Roman';-inkscape-font-specification:'Times New Roman,  Bold';fill:#ffffff;stroke-width:0.183065"
             x="581.90253"
             y="-162.55193">CAR</tspan></text>
      </g>
      <text
         xml:space="preserve"
         style="font-style:normal;font-weight:normal;font-size:4.19631px;line-height:0.85;font-family:sans-serif;word-spacing:0px;fill:#000000;fill-opacity:1;stroke:none;stroke-width:0.210194"
         x="560.16479"
         y="-170.74406"
         id="text43174"
         transform="scale(1.0214018,0.97904661)"><tspan
           sodipodi:role="line"
           id="tspan43172"
           style="font-style:normal;font-variant:normal;font-weight:bold;font-stretch:normal;font-size:4.19631px;font-family:sans-serif;-inkscape-font-specification:'sans-serif Bold';fill:#ffffff;stroke-width:0.210194"
           x="560.16479"
           y="-170.74406">Location de Voitures</tspan></text>
    </g>
  </g>
</svg>
